<svg xmlns="http://www.w3.org/2000/svg" version="1.1" xmlns:xlink="http://www.w3.org/1999/xlink" xmlns:svgjs="http://svgjs.com/svgjs" width="32" height="32"><svg xmlns="http://www.w3.org/2000/svg" aria-label="Ark UI logo" role="img" width="32" height="32" preserveAspectRatio="xMidYMid meet" viewBox="0 0 179 163"><path d="M77.5775 51.8693C69.0488 76.7558 60.5453 101.54 52.0999 126.344C51.6351 127.709 51.0286 128.127 49.5853 128.122C33.6442 128.064 17.7028 128.086 1.76143 128.086C1.24309 128.086 0.72475 128.085 0 128.085C14.4893 85.2747 28.9102 42.6656 43.3404 0.0293898C43.971 0.0293898 44.5035 0.0293979 45.036 0.0293979C74.3734 0.0292352 103.711 0.036925 133.048 5.25495e-06C134.216 -0.00146609 134.755 0.305637 135.146 1.42456C149.605 42.8214 164.097 84.2068 178.583 125.594C178.713 125.965 178.819 126.345 179 126.924C153.792 126.924 128.701 126.924 103.445 126.924C103.445 139.057 103.445 151.003 103.445 162.949C103.341 162.966 103.237 162.983 103.132 163C93.2594 135.153 83.3866 107.305 73.4404 79.2513C74.0551 79.1984 74.5545 79.1183 75.054 79.1179C85.6815 79.1106 96.3091 79.1124 106.937 79.1121C110.059 79.112 110.459 78.5739 109.435 75.6866C103.641 59.3458 97.8412 43.0069 92.0433 26.6675C91.4057 24.8705 90.8028 23.06 90.1038 21.287C89.9165 20.8118 89.7085 20.0387 89.087 20.0387C88.4655 20.0387 88.256 20.846 88.0855 21.3342C85.893 27.6121 83.7459 33.9057 81.5874 40.1953C80.2632 44.0539 78.9391 47.9126 77.5775 51.8693Z" fill="currentColor"></path></svg></svg>