<svg xmlns="http://www.w3.org/2000/svg" width="32" height="32" fill="none">
  <rect width="32" height="32" fill="#EB5E41" rx="4" />
  <path
    fill="#fff"
    d="M14.402 13c-1.144 3.36-2.284 6.705-3.416 10.053-.063.184-.144.24-.338.24-2.137-.008-4.274-.005-6.412-.005H4L9.811 6.004h.227c3.934 0 7.867.001 11.8-.004.157 0 .23.041.282.192 1.939 5.588 3.882 11.173 5.824 16.76.018.05.032.1.056.179H17.87v4.862a7.264 7.264 0 0 0-.042.007l-3.981-11.303c.082-.008.15-.018.216-.018 1.425-.002 2.85-.001 4.275-.001.418 0 .472-.073.335-.463L16.34 9.6c-.085-.242-.166-.487-.26-.726-.025-.064-.053-.168-.136-.168-.084 0-.112.109-.135.174-.294.848-.582 1.697-.87 2.546l-.538 1.576Z"
  />
</svg>
