<svg width="328" height="119" viewBox="0 0 328 119" fill="none" xmlns="http://www.w3.org/2000/svg">
<mask id="path-1-outside-1_509_2" maskUnits="userSpaceOnUse" x="0" y="0" width="328" height="119" fill="black">
<rect fill="white" width="328" height="119"/>
<path fill-rule="evenodd" clip-rule="evenodd" d="M176.872 11C185.715 11 194.114 12.2714 200.35 15.8313C206.705 19.4597 210.71 25.4158 210.71 34.3666C210.71 41.7236 206.79 48.1034 200.065 51.3698C199.649 51.572 199.668 52.2098 200.095 52.3878C202.063 53.2075 203.735 54.3115 205.071 55.7478C207.493 58.353 208.632 61.8615 208.632 66.2064V74.5802C208.632 77.5438 208.653 80.2297 209.907 82.8062L210.576 84.1805C210.738 84.5126 210.496 84.8993 210.126 84.8993H182.846C182.661 84.8993 182.491 84.7968 182.404 84.6329L182.132 84.1185C181.077 82.1222 180.652 78.9807 180.652 74.7749V69.2249C180.652 66.9252 180.143 65.3685 179.03 64.342C177.885 63.2863 175.793 62.5044 171.951 62.5044H155.329C155.053 62.5044 154.829 62.7282 154.829 63.0044V84.3993C154.829 84.6755 154.605 84.8993 154.329 84.8993H127.349C127.073 84.8993 126.849 84.6755 126.849 84.3993V11.5C126.849 11.2239 127.073 11 127.349 11H176.872ZM171.732 43.8135C176.369 43.8135 178.99 42.9722 180.444 41.802C181.819 40.6953 182.401 39.0837 182.401 36.8009C182.401 35.4902 182.136 34.5143 181.711 33.7723C181.29 33.0353 180.663 32.4418 179.798 31.968C178.007 30.9864 175.289 30.5672 171.732 30.5672H155.329C155.053 30.5672 154.829 30.7911 154.829 31.0672V43.3135C154.829 43.5896 155.053 43.8135 155.329 43.8135H171.732ZM277.773 11.1394C277.866 11.0499 277.99 11 278.119 11H313.322C313.783 11 313.998 11.5712 313.652 11.8756L279.847 41.5803C279.641 41.7615 279.619 42.0749 279.799 42.2827L315.877 84.0726C316.156 84.3966 315.926 84.8993 315.498 84.8993H281.337C281.188 84.8993 281.048 84.8336 280.953 84.7198L259.799 59.3891C259.615 59.169 259.284 59.1483 259.074 59.3438L249.521 68.2474C249.419 68.342 249.362 68.4745 249.362 68.6132V84.3993C249.362 84.6755 249.138 84.8993 248.862 84.8993H221.881C221.605 84.8993 221.381 84.6755 221.381 84.3993V11.5C221.381 11.2239 221.605 11 221.881 11H248.862C249.138 11 249.362 11.2239 249.362 11.5V37.2509C249.362 37.6915 249.89 37.9167 250.208 37.6116L277.773 11.1394ZM59.0455 46.9439C59.7006 45.0267 60.356 43.1086 61.0116 41.1894C61.7726 38.9712 62.5134 36.8059 63.2535 34.6426L63.3383 34.3948C63.5901 33.6587 63.8417 32.9224 64.0933 32.1861C65.0928 29.2612 66.0922 26.3363 67.1085 23.4172C67.1175 23.3913 67.1267 23.3639 67.1363 23.3355C67.2316 23.0514 67.3618 22.6631 67.6896 22.6631C68.0091 22.6631 68.1402 23.0163 68.2416 23.2891C68.2546 23.3243 68.2672 23.3581 68.2796 23.3896C68.5776 24.1479 68.8455 24.9179 69.1134 25.688C69.2101 25.9659 69.3068 26.2438 69.4049 26.5212C70.1642 28.6677 70.9235 30.8141 71.6828 32.9605C74.2877 40.3241 76.8927 47.6876 79.4958 55.0518C80.0898 56.7323 79.8578 57.0455 78.0462 57.0455C76.9142 57.0456 75.7821 57.0456 74.6501 57.0455C69.6159 57.0455 64.5817 57.0455 59.5475 57.0489C59.3538 57.0491 59.1602 57.0699 58.9466 57.0929C58.8406 57.1044 58.7296 57.1163 58.6112 57.1265L75.8389 105.871L76.0204 105.841V84.8736H119.858C119.822 84.7565 119.791 84.6534 119.762 84.5597C119.709 84.3836 119.666 84.2406 119.616 84.0996C118.277 80.2604 116.937 76.4213 115.598 72.5822C108.532 52.3327 101.466 32.0833 94.4139 11.8291C94.1872 11.1779 93.8744 10.9991 93.1965 11C78.7224 11.0183 64.2483 11.0178 49.7741 11.0173C47.2263 11.0172 44.6784 11.0171 42.1305 11.0171L41.1467 11.0171L16 85.5495L17.022 85.5495C18.9942 85.5495 20.9665 85.5489 22.9387 85.5484C30.2159 85.5463 37.4931 85.5442 44.7701 85.5705C45.6076 85.5735 45.9594 85.3305 46.2291 84.5359C50.4801 72.0121 54.7563 59.4969 59.0455 46.9439Z"/>
</mask>
<path fill-rule="evenodd" clip-rule="evenodd" d="M176.872 11C185.715 11 194.114 12.2714 200.35 15.8313C206.705 19.4597 210.71 25.4158 210.71 34.3666C210.71 41.7236 206.79 48.1034 200.065 51.3698C199.649 51.572 199.668 52.2098 200.095 52.3878C202.063 53.2075 203.735 54.3115 205.071 55.7478C207.493 58.353 208.632 61.8615 208.632 66.2064V74.5802C208.632 77.5438 208.653 80.2297 209.907 82.8062L210.576 84.1805C210.738 84.5126 210.496 84.8993 210.126 84.8993H182.846C182.661 84.8993 182.491 84.7968 182.404 84.6329L182.132 84.1185C181.077 82.1222 180.652 78.9807 180.652 74.7749V69.2249C180.652 66.9252 180.143 65.3685 179.03 64.342C177.885 63.2863 175.793 62.5044 171.951 62.5044H155.329C155.053 62.5044 154.829 62.7282 154.829 63.0044V84.3993C154.829 84.6755 154.605 84.8993 154.329 84.8993H127.349C127.073 84.8993 126.849 84.6755 126.849 84.3993V11.5C126.849 11.2239 127.073 11 127.349 11H176.872ZM171.732 43.8135C176.369 43.8135 178.99 42.9722 180.444 41.802C181.819 40.6953 182.401 39.0837 182.401 36.8009C182.401 35.4902 182.136 34.5143 181.711 33.7723C181.29 33.0353 180.663 32.4418 179.798 31.968C178.007 30.9864 175.289 30.5672 171.732 30.5672H155.329C155.053 30.5672 154.829 30.7911 154.829 31.0672V43.3135C154.829 43.5896 155.053 43.8135 155.329 43.8135H171.732ZM277.773 11.1394C277.866 11.0499 277.99 11 278.119 11H313.322C313.783 11 313.998 11.5712 313.652 11.8756L279.847 41.5803C279.641 41.7615 279.619 42.0749 279.799 42.2827L315.877 84.0726C316.156 84.3966 315.926 84.8993 315.498 84.8993H281.337C281.188 84.8993 281.048 84.8336 280.953 84.7198L259.799 59.3891C259.615 59.169 259.284 59.1483 259.074 59.3438L249.521 68.2474C249.419 68.342 249.362 68.4745 249.362 68.6132V84.3993C249.362 84.6755 249.138 84.8993 248.862 84.8993H221.881C221.605 84.8993 221.381 84.6755 221.381 84.3993V11.5C221.381 11.2239 221.605 11 221.881 11H248.862C249.138 11 249.362 11.2239 249.362 11.5V37.2509C249.362 37.6915 249.89 37.9167 250.208 37.6116L277.773 11.1394ZM59.0455 46.9439C59.7006 45.0267 60.356 43.1086 61.0116 41.1894C61.7726 38.9712 62.5134 36.8059 63.2535 34.6426L63.3383 34.3948C63.5901 33.6587 63.8417 32.9224 64.0933 32.1861C65.0928 29.2612 66.0922 26.3363 67.1085 23.4172C67.1175 23.3913 67.1267 23.3639 67.1363 23.3355C67.2316 23.0514 67.3618 22.6631 67.6896 22.6631C68.0091 22.6631 68.1402 23.0163 68.2416 23.2891C68.2546 23.3243 68.2672 23.3581 68.2796 23.3896C68.5776 24.1479 68.8455 24.9179 69.1134 25.688C69.2101 25.9659 69.3068 26.2438 69.4049 26.5212C70.1642 28.6677 70.9235 30.8141 71.6828 32.9605C74.2877 40.3241 76.8927 47.6876 79.4958 55.0518C80.0898 56.7323 79.8578 57.0455 78.0462 57.0455C76.9142 57.0456 75.7821 57.0456 74.6501 57.0455C69.6159 57.0455 64.5817 57.0455 59.5475 57.0489C59.3538 57.0491 59.1602 57.0699 58.9466 57.0929C58.8406 57.1044 58.7296 57.1163 58.6112 57.1265L75.8389 105.871L76.0204 105.841V84.8736H119.858C119.822 84.7565 119.791 84.6534 119.762 84.5597C119.709 84.3836 119.666 84.2406 119.616 84.0996C118.277 80.2604 116.937 76.4213 115.598 72.5822C108.532 52.3327 101.466 32.0833 94.4139 11.8291C94.1872 11.1779 93.8744 10.9991 93.1965 11C78.7224 11.0183 64.2483 11.0178 49.7741 11.0173C47.2263 11.0172 44.6784 11.0171 42.1305 11.0171L41.1467 11.0171L16 85.5495L17.022 85.5495C18.9942 85.5495 20.9665 85.5489 22.9387 85.5484C30.2159 85.5463 37.4931 85.5442 44.7701 85.5705C45.6076 85.5735 45.9594 85.3305 46.2291 84.5359C50.4801 72.0121 54.7563 59.4969 59.0455 46.9439Z" fill="black"/>
<path d="M200.35 15.8313L194.896 25.3841L194.896 25.3841L200.35 15.8313ZM200.065 51.3698L204.871 61.2646L204.871 61.2645L200.065 51.3698ZM200.095 52.3878L204.326 42.234L204.326 42.234L200.095 52.3878ZM205.071 55.7478L213.126 48.2572L213.126 48.2572L205.071 55.7478ZM209.907 82.8062L219.798 77.9925L219.798 77.9925L209.907 82.8062ZM210.576 84.1805L220.467 79.3671L220.467 79.3669L210.576 84.1805ZM182.404 84.6329L172.679 89.7728L172.679 89.7733L182.404 84.6329ZM182.132 84.1185L191.858 78.9787L191.858 78.9786L182.132 84.1185ZM179.03 64.342L186.486 56.2545L186.486 56.2545L179.03 64.342ZM180.444 41.802L173.548 33.2319L173.548 33.2319L180.444 41.802ZM181.711 33.7723L191.261 28.3124L191.261 28.3123L181.711 33.7723ZM179.798 31.968L185.084 22.3212L185.084 22.3212L179.798 31.968ZM277.773 11.1394L285.392 19.0732L285.393 19.0728L277.773 11.1394ZM313.652 11.8756L306.391 3.61236L306.391 3.61249L313.652 11.8756ZM279.847 41.5803L272.586 33.3172L272.586 33.3173L279.847 41.5803ZM279.799 42.2827L271.472 49.4706L271.472 49.4709L279.799 42.2827ZM315.877 84.0726L307.55 91.2609L307.55 91.2609L315.877 84.0726ZM280.953 84.7198L272.51 91.7708L272.51 91.7709L280.953 84.7198ZM259.799 59.3891L251.355 66.44L251.356 66.4401L259.799 59.3891ZM259.074 59.3438L251.574 51.2967L251.574 51.2969L259.074 59.3438ZM249.521 68.2474L242.021 60.2005L242.021 60.2007L249.521 68.2474ZM250.208 37.6116L257.827 45.5456L257.827 45.5454L250.208 37.6116ZM61.0116 41.1894L50.6069 37.6199L50.6046 37.6266L50.6023 37.6333L61.0116 41.1894ZM59.0455 46.9439L48.6364 43.3872L48.6364 43.3872L59.0455 46.9439ZM63.2535 34.6426L52.8457 31.0819L52.8457 31.082L63.2535 34.6426ZM63.3383 34.3948L73.746 37.9556L73.746 37.9555L63.3383 34.3948ZM64.0933 32.1861L74.5024 35.743L74.5024 35.743L64.0933 32.1861ZM67.1085 23.4172L77.4969 27.034L77.497 27.0337L67.1085 23.4172ZM67.1363 23.3355L56.7075 19.8369L56.7074 19.8372L67.1363 23.3355ZM68.2416 23.2891L78.5534 19.4595L78.5534 19.4594L68.2416 23.2891ZM68.2796 23.3896L78.5174 19.3663L78.5171 19.3656L68.2796 23.3896ZM69.1134 25.688L79.5026 22.0734L79.5025 22.0733L69.1134 25.688ZM69.4049 26.5212L59.0346 30.1895L59.0346 30.1896L69.4049 26.5212ZM71.6828 32.9605L82.0531 29.2919L82.0531 29.2919L71.6828 32.9605ZM79.4958 55.0518L69.1247 58.7178L69.1247 58.7179L79.4958 55.0518ZM78.0462 57.0455L78.0465 68.0455L78.0466 68.0455L78.0462 57.0455ZM74.6501 57.0455L74.65 68.0455L74.65 68.0455L74.6501 57.0455ZM59.5475 57.0489L59.555 68.0489L59.555 68.0489L59.5475 57.0489ZM58.9466 57.0929L57.7681 46.1563L57.7681 46.1563L58.9466 57.0929ZM58.6112 57.1265L57.6655 46.1673L43.503 47.3894L48.2399 60.7921L58.6112 57.1265ZM75.8389 105.871L65.4676 109.536L68.5298 118.2L77.6006 116.729L75.8389 105.871ZM76.0204 105.841L77.7821 116.699L87.0204 115.2V105.841H76.0204ZM76.0204 84.8736V73.8736H65.0204V84.8736H76.0204ZM119.858 84.8736V95.8736H134.805L130.361 81.6031L119.858 84.8736ZM119.762 84.5597L130.289 81.3689L130.289 81.3688L119.762 84.5597ZM119.616 84.0996L109.23 87.7234L109.231 87.7238L119.616 84.0996ZM115.598 72.5822L105.212 76.2062L105.212 76.2062L115.598 72.5822ZM94.4139 11.8291L84.0256 15.4462L84.0256 15.4462L94.4139 11.8291ZM93.1965 11L93.2104 22L93.2104 22L93.1965 11ZM49.7741 11.0173L49.7737 22.0173L49.7741 11.0173ZM42.1305 11.0171L42.1305 22.0171L42.1306 22.0171L42.1305 11.0171ZM41.1467 11.0171L41.1468 0.0171088L33.2489 0.0170708L30.724 7.50054L41.1467 11.0171ZM16 85.5495L5.57725 82.0329L0.67949 96.5494L15.9999 96.5495L16 85.5495ZM17.022 85.5495L17.0219 96.5495H17.022V85.5495ZM22.9387 85.5484L22.9356 74.5484L22.9356 74.5484L22.9387 85.5484ZM44.7701 85.5705L44.7304 96.5704L44.7304 96.5704L44.7701 85.5705ZM46.2291 84.5359L56.6455 88.0715L56.6455 88.0715L46.2291 84.5359ZM205.804 6.27857C197.105 1.31222 186.423 0 176.872 0V22C185.008 22 191.124 23.2306 194.896 25.3841L205.804 6.27857ZM221.71 34.3666C221.71 21.392 215.523 11.8275 205.804 6.27857L194.896 25.3841C197.887 27.092 199.71 29.4396 199.71 34.3666H221.71ZM204.871 61.2645C215.42 56.1407 221.71 45.8962 221.71 34.3666H199.71C199.71 37.551 198.16 40.0662 195.259 41.4752L204.871 61.2645ZM204.326 42.234C208.742 44.0739 210.657 48.185 210.759 51.5555C210.861 54.9295 209.192 59.1658 204.871 61.2646L195.259 41.4751C186.268 45.8418 186.741 58.7399 195.865 62.5416L204.326 42.234ZM213.126 48.2572C210.554 45.4912 207.5 43.5565 204.326 42.234L195.865 62.5416C196.625 62.8585 196.916 63.1317 197.015 63.2384L213.126 48.2572ZM219.632 66.2064C219.632 59.9195 217.943 53.4375 213.126 48.2572L197.015 63.2384C197.043 63.2685 197.632 63.8034 197.632 66.2064H219.632ZM219.632 74.5802V66.2064H197.632V74.5802H219.632ZM219.798 77.9925C219.842 78.0837 219.78 78.0268 219.722 77.5403C219.649 76.9241 219.632 76.1515 219.632 74.5802H197.632C197.632 77.2046 197.489 82.4258 200.016 87.6198L219.798 77.9925ZM220.467 79.3669L219.798 77.9925L200.016 87.6198L200.685 88.9941L220.467 79.3669ZM210.126 95.8993C218.622 95.8993 224.184 87.0053 220.467 79.3671L200.685 88.994C197.291 82.0199 202.37 73.8993 210.126 73.8993V95.8993ZM182.846 95.8993H210.126V73.8993H182.846V95.8993ZM172.679 89.7733C174.671 93.5415 178.583 95.8993 182.846 95.8993V73.8993C186.738 73.8993 190.311 76.0522 192.129 79.4926L172.679 89.7733ZM172.407 89.2584L172.679 89.7728L192.129 79.4931L191.858 78.9787L172.407 89.2584ZM169.652 74.7749C169.652 79.1343 169.988 84.6818 172.407 89.2585L191.858 78.9786C192.113 79.4613 192.005 79.4954 191.87 78.6153C191.745 77.7931 191.652 76.5533 191.652 74.7749H169.652ZM169.652 69.2249V74.7749H191.652V69.2249H169.652ZM171.574 72.4296C170.613 71.5435 170.07 70.5316 169.815 69.7612C169.599 69.1088 169.652 68.8235 169.652 69.2249H191.652C191.652 65.5071 190.84 60.2686 186.486 56.2545L171.574 72.4296ZM171.951 73.5044C172.544 73.5044 172.956 73.5349 173.217 73.5659C173.478 73.597 173.551 73.6244 173.48 73.6042C173.322 73.5589 172.506 73.289 171.574 72.4296L186.486 56.2545C182.352 52.4436 176.897 51.5044 171.951 51.5044V73.5044ZM155.329 73.5044H171.951V51.5044H155.329V73.5044ZM165.829 63.0044C165.829 68.8035 161.128 73.5044 155.329 73.5044V51.5044C148.978 51.5044 143.829 56.653 143.829 63.0044H165.829ZM165.829 84.3993V63.0044H143.829V84.3993H165.829ZM154.329 95.8993C160.68 95.8993 165.829 90.7507 165.829 84.3993H143.829C143.829 78.6002 148.53 73.8993 154.329 73.8993V95.8993ZM127.349 95.8993H154.329V73.8993H127.349V95.8993ZM115.849 84.3993C115.849 90.7506 120.998 95.8993 127.349 95.8993V73.8993C133.148 73.8993 137.849 78.6003 137.849 84.3993H115.849ZM115.849 11.5V84.3993H137.849V11.5H115.849ZM127.349 0C120.998 0 115.849 5.14877 115.849 11.5H137.849C137.849 17.2989 133.148 22 127.349 22V0ZM176.872 0H127.349V22H176.872V0ZM173.548 33.2319C174.345 32.5905 174.879 32.5081 174.596 32.5793C174.298 32.6543 173.433 32.8135 171.732 32.8135V54.8135C177.258 54.8135 182.962 53.8949 187.34 50.372L173.548 33.2319ZM171.401 36.8009C171.401 37.063 171.36 36.6049 171.67 35.7989C172.031 34.8571 172.686 33.9255 173.548 33.2319L187.34 50.372C192.238 46.4312 193.401 41.0073 193.401 36.8009H171.401ZM172.162 39.2321C171.454 37.9937 171.401 37.0026 171.401 36.8009H193.401C193.401 33.9779 192.817 31.035 191.261 28.3124L172.162 39.2321ZM174.512 41.6147C173.871 41.2633 172.893 40.5105 172.162 39.2322L191.261 28.3123C189.687 25.56 187.455 23.6202 185.084 22.3212L174.512 41.6147ZM171.732 41.5672C173.119 41.5672 174.039 41.652 174.596 41.7462C175.191 41.8465 175.036 41.9018 174.512 41.6147L185.084 22.3212C180.746 19.9443 175.668 19.5672 171.732 19.5672V41.5672ZM155.329 41.5672H171.732V19.5672H155.329V41.5672ZM165.829 31.0672C165.829 36.8663 161.128 41.5672 155.329 41.5672V19.5672C148.978 19.5672 143.829 24.7159 143.829 31.0672H165.829ZM165.829 43.3135V31.0672H143.829V43.3135H165.829ZM155.329 32.8135C161.128 32.8135 165.829 37.5144 165.829 43.3135H143.829C143.829 49.6648 148.978 54.8135 155.329 54.8135V32.8135ZM171.732 32.8135H155.329V54.8135H171.732V32.8135ZM278.119 0C275.15 0 272.295 1.14858 270.153 3.20598L285.393 19.0728C283.437 20.9513 280.83 22 278.119 22V0ZM313.322 0H278.119V22H313.322V0ZM320.913 20.1388C328.881 13.1372 323.928 0 313.322 0V22C303.638 22 299.116 10.0052 306.391 3.61236L320.913 20.1388ZM287.108 49.8434L320.913 20.1387L306.391 3.61249L272.586 33.3172L287.108 49.8434ZM288.125 35.0947C291.891 39.4568 291.438 46.039 287.108 49.8433L272.586 33.3173C267.845 37.4839 267.348 44.6931 271.472 49.4706L288.125 35.0947ZM324.203 76.8843L288.125 35.0944L271.472 49.4709L307.55 91.2609L324.203 76.8843ZM315.498 95.8993C325.342 95.8993 330.636 84.3361 324.203 76.8843L307.55 91.2609C301.676 84.457 306.51 73.8993 315.498 73.8993V95.8993ZM281.337 95.8993H315.498V73.8993H281.337V95.8993ZM272.51 91.7709C274.695 94.3868 277.928 95.8993 281.337 95.8993V73.8993C284.449 73.8993 287.401 75.2803 289.396 77.6688L272.51 91.7709ZM251.356 66.4401L272.51 91.7708L289.396 77.6689L268.242 52.3382L251.356 66.4401ZM266.573 67.391C262.167 71.4974 255.217 71.0635 251.355 66.44L268.242 52.3382C264.013 47.2745 256.4 46.7992 251.574 51.2967L266.573 67.391ZM257.02 76.2944L266.574 67.3908L251.574 51.2969L242.021 60.2005L257.02 76.2944ZM260.362 68.6132C260.362 71.5266 259.151 74.3084 257.021 76.2941L242.021 60.2007C239.687 62.3756 238.362 65.4224 238.362 68.6132H260.362ZM260.362 84.3993V68.6132H238.362V84.3993H260.362ZM248.862 95.8993C255.213 95.8993 260.362 90.7505 260.362 84.3993H238.362C238.362 78.6004 243.063 73.8993 248.862 73.8993V95.8993ZM221.881 95.8993H248.862V73.8993H221.881V95.8993ZM210.381 84.3993C210.381 90.7507 215.53 95.8993 221.881 95.8993V73.8993C227.68 73.8993 232.381 78.6002 232.381 84.3993H210.381ZM210.381 11.5V84.3993H232.381V11.5H210.381ZM221.881 0C215.53 0 210.381 5.14867 210.381 11.5H232.381C232.381 17.299 227.68 22 221.881 22V0ZM248.862 0H221.881V22H248.862V0ZM260.362 11.5C260.362 5.14889 255.213 0 248.862 0V22C243.062 22 238.362 17.2988 238.362 11.5H260.362ZM260.362 37.2509V11.5H238.362V37.2509H260.362ZM242.589 29.6775C249.262 23.2692 260.362 27.9981 260.362 37.2509H238.362C238.362 47.385 250.518 52.5642 257.827 45.5456L242.589 29.6775ZM270.154 3.20551L242.589 29.6777L257.827 45.5454L285.392 19.0732L270.154 3.20551ZM50.6023 37.6333C49.9468 39.5521 49.2915 41.47 48.6364 43.3872L69.4546 50.5006C70.1097 48.5834 70.7652 46.665 71.4209 44.7456L50.6023 37.6333ZM52.8457 31.082C52.1054 33.246 51.3661 35.4069 50.6069 37.6199L71.4163 44.759C72.1791 42.5356 72.9214 40.3659 73.6613 38.2032L52.8457 31.082ZM52.9305 30.8341L52.8457 31.0819L73.6612 38.2033L73.746 37.9556L52.9305 30.8341ZM53.6842 28.6293C53.4325 29.3659 53.1816 30.1002 52.9305 30.8342L73.746 37.9555C73.9986 37.2171 74.2509 36.4789 74.5024 35.743L53.6842 28.6293ZM56.7202 19.8003C55.6917 22.7544 54.682 25.7094 53.6842 28.6293L74.5024 35.743C75.5035 32.813 76.4928 29.9181 77.4969 27.034L56.7202 19.8003ZM56.7074 19.8372C56.7048 19.8449 56.7036 19.8485 56.7026 19.8515C56.7017 19.8541 56.7019 19.8535 56.7027 19.851C56.7042 19.8468 56.7106 19.8279 56.7201 19.8006L77.497 27.0337C77.5304 26.938 77.56 26.8491 77.5652 26.8338L56.7074 19.8372ZM67.6896 11.6631C62.272 11.6631 59.2035 15.1902 58.0799 16.9334C57.5187 17.8042 57.1837 18.5779 57.0126 19.0028C56.8415 19.4279 56.7167 19.8092 56.7075 19.8369L77.5651 26.8341C77.7096 26.4031 77.3676 27.6173 76.5716 28.8521C76.103 29.5792 75.2033 30.773 73.682 31.8119C72.0216 32.946 69.9483 33.6631 67.6896 33.6631V11.6631ZM78.5534 19.4594C78.5452 19.4375 78.4075 19.0574 78.2214 18.6358C78.0339 18.2107 77.6689 17.4401 77.0689 16.5799C75.7986 14.7591 72.739 11.6631 67.6896 11.6631V33.6631C65.6005 33.6631 63.6332 33.0467 61.9964 32.0064C60.4781 31.0415 59.5409 29.9058 59.0259 29.1677C58.1618 27.9291 57.7692 26.6864 57.9298 27.1189L78.5534 19.4594ZM78.5171 19.3656C78.537 19.4161 78.5509 19.453 78.5555 19.4652C78.5581 19.4721 78.5595 19.4759 78.559 19.4745C78.5582 19.4724 78.5571 19.4694 78.5534 19.4595L57.9297 27.1188C57.9346 27.1318 57.9845 27.2673 58.0421 27.4137L78.5171 19.3656ZM79.5025 22.0733C79.2466 21.3377 78.9084 20.3613 78.5174 19.3663L58.0418 27.4129C58.2467 27.9345 58.4444 28.4982 58.7243 29.3026L79.5025 22.0733ZM79.7753 22.853C79.6882 22.6069 79.6008 22.3557 79.5026 22.0734L58.7242 29.3026C58.8194 29.5761 58.9254 29.8808 59.0346 30.1895L79.7753 22.853ZM82.0531 29.2919C81.2937 27.1455 80.5345 24.9992 79.7752 22.8529L59.0346 30.1896C59.7939 32.3361 60.5533 34.4827 61.3126 36.6291L82.0531 29.2919ZM89.8669 51.3858C87.2633 44.0201 84.6579 36.6553 82.0531 29.2919L61.3126 36.6291C63.9176 43.9928 66.5221 51.3551 69.1247 58.7178L89.8669 51.3858ZM78.0466 68.0455C78.622 68.0455 79.9258 68.0385 81.3623 67.7394C82.7304 67.4547 86.1057 66.5285 88.5623 63.1582C91.059 59.733 90.8747 56.1756 90.6883 54.6969C90.4989 53.1933 90.0585 51.9277 89.8669 51.3857L69.1247 58.7179C69.2301 59.0162 68.9835 58.4198 68.861 57.4476C68.7416 56.5003 68.4975 53.3363 70.7839 50.1995C73.0304 47.1175 76.0452 46.3747 76.8787 46.2012C77.7809 46.0134 78.3763 46.0455 78.0459 46.0455L78.0466 68.0455ZM74.65 68.0455C75.782 68.0456 76.9143 68.0456 78.0465 68.0455L78.0459 46.0455C76.9141 46.0456 75.7822 46.0456 74.6501 46.0455L74.65 68.0455ZM59.555 68.0489C64.5848 68.0455 69.6151 68.0455 74.65 68.0455L74.6502 46.0455C69.6166 46.0455 64.5785 46.0455 59.5399 46.0489L59.555 68.0489ZM60.1251 68.0296C60.1848 68.0232 60.2023 68.0214 60.2134 68.0202C60.2205 68.0195 60.1948 68.0222 60.1497 68.0259C60.0615 68.0331 59.8458 68.0487 59.555 68.0489L59.5399 46.0489C58.6556 46.0496 57.8665 46.1457 57.7681 46.1563L60.1251 68.0296ZM59.557 68.0858C59.8089 68.0641 60.0317 68.0397 60.1252 68.0296L57.7681 46.1563C57.7403 46.1593 57.7213 46.1613 57.7034 46.1632C57.6863 46.165 57.6748 46.1662 57.6666 46.1671C57.6502 46.1687 57.6523 46.1684 57.6655 46.1673L59.557 68.0858ZM86.2102 102.205L68.9825 53.461L48.2399 60.7921L65.4676 109.536L86.2102 102.205ZM74.2588 94.9833L74.0773 95.0127L77.6006 116.729L77.7821 116.699L74.2588 94.9833ZM65.0204 84.8736V105.841H87.0204V84.8736H65.0204ZM119.858 73.8736H76.0204V95.8736H119.858V73.8736ZM109.235 87.7505C109.263 87.8429 109.306 87.9825 109.356 88.1442L130.361 81.6031C130.338 81.5304 130.318 81.4638 130.289 81.3689L109.235 87.7505ZM109.231 87.7238C109.205 87.6513 109.191 87.6057 109.193 87.6104C109.193 87.6113 109.194 87.6147 109.196 87.6212C109.198 87.6277 109.201 87.6365 109.204 87.6485C109.208 87.6605 109.212 87.6746 109.218 87.6919C109.223 87.7095 109.229 87.728 109.235 87.7505L130.289 81.3688C130.251 81.2407 130.14 80.8711 130.002 80.4754L109.231 87.7238ZM105.212 76.2062C106.551 80.0453 107.891 83.8843 109.23 87.7234L130.002 80.4758C128.663 76.6365 127.323 72.7973 125.984 68.9581L105.212 76.2062ZM84.0256 15.4462C91.0792 35.7044 98.1462 55.9573 105.212 76.2062L125.984 68.9582C118.918 48.7081 111.853 28.4622 104.802 8.21208L84.0256 15.4462ZM93.2104 22C92.8662 22.0004 90.4591 22.0264 87.9236 20.3564C85.2212 18.5763 84.2748 16.1617 84.0256 15.4462L104.802 8.21209C104.326 6.84529 103.11 4.0157 100.025 1.98372C97.1071 0.0616828 94.2047 -0.00127636 93.1826 1.4878e-05L93.2104 22ZM49.7737 22.0173C64.2467 22.0178 78.728 22.0183 93.2104 22L93.1826 1.48646e-05C78.7168 0.0182763 64.2498 0.017777 49.7745 0.0172758L49.7737 22.0173ZM42.1306 22.0171C44.6782 22.0171 47.2258 22.0172 49.7737 22.0173L49.7745 0.0172758C47.2267 0.0171875 44.6786 0.0170993 42.1305 0.0171135L42.1306 22.0171ZM41.1467 22.0171L42.1305 22.0171L42.1306 0.0171135L41.1468 0.0171088L41.1467 22.0171ZM26.4228 89.0661L51.5695 14.5337L30.724 7.50054L5.57725 82.0329L26.4228 89.0661ZM17.0221 74.5495L16.0001 74.5495L15.9999 96.5495L17.0219 96.5495L17.0221 74.5495ZM22.9356 74.5484C20.9631 74.5489 18.9924 74.5495 17.022 74.5495V96.5495C18.9961 96.5495 20.9699 96.5489 22.9419 96.5484L22.9356 74.5484ZM44.8099 74.5706C37.5078 74.5442 30.2092 74.5463 22.9356 74.5484L22.9419 96.5484C30.2226 96.5463 37.4783 96.5442 44.7304 96.5704L44.8099 74.5706ZM35.8128 81.0004C35.9594 80.5686 36.7812 78.1913 39.3714 76.364C41.9342 74.5559 44.4191 74.5692 44.8098 74.5706L44.7304 96.5704C45.9586 96.5749 49.0381 96.4681 52.0537 94.3406C55.0966 92.1939 56.2292 89.2979 56.6455 88.0715L35.8128 81.0004ZM48.6364 43.3872C44.3478 55.9384 40.0679 68.4642 35.8128 81.0004L56.6455 88.0715C60.8922 75.56 65.1649 63.0553 69.4546 50.5006L48.6364 43.3872Z" fill="white" mask="url(#path-1-outside-1_509_2)"/>
</svg>
