<svg width="329" height="104" viewBox="0 0 329 104" fill="none" xmlns="http://www.w3.org/2000/svg">
<path fill-rule="evenodd" clip-rule="evenodd" d="M47.0637 39.2971C47.7798 37.2014 48.4962 35.1048 49.2128 33.0071C50.0448 30.5819 50.8547 28.2146 51.6639 25.8494L51.7566 25.5783C52.0321 24.7731 52.3073 23.9677 52.5825 23.1623C53.6752 19.9648 54.7678 16.7672 55.8788 13.5761C55.8887 13.5478 55.8987 13.5179 55.9091 13.4868C56.0133 13.1762 56.1557 12.7517 56.5141 12.7517C56.8634 12.7517 57.0068 13.1378 57.1176 13.4361C57.1319 13.4745 57.1456 13.5115 57.1592 13.546C57.485 14.375 57.7779 15.2169 58.0708 16.0588C58.1765 16.3627 58.2823 16.6666 58.3895 16.9699C59.2176 19.3109 60.0458 21.6519 60.874 23.993C63.724 32.0495 66.5741 40.106 69.4222 48.1633C70.0717 50.0006 69.8181 50.343 67.8374 50.3431C66.5967 50.3431 65.3561 50.3431 64.1154 50.3431C58.6143 50.3431 53.1131 50.343 47.612 50.3468C47.4003 50.347 47.1886 50.3698 46.9551 50.395C46.8391 50.4074 46.7178 50.4205 46.5884 50.4317L65.4241 103.725L65.6225 103.693V80.7685H113.552C113.512 80.6403 113.478 80.5275 113.447 80.425C113.389 80.2325 113.341 80.0763 113.288 79.9222C111.828 75.739 110.368 71.5558 108.909 67.3726C101.178 45.219 93.4482 23.0653 85.7328 0.906521C85.4849 0.194493 85.1429 -0.000932941 84.4018 3.34394e-06C68.5767 0.0199807 52.7516 0.0194328 36.9265 0.0188849C34.1408 0.0187884 31.3551 0.0186919 28.5695 0.0187074L27.4938 0.0187023L0 81.5074L1.1174 81.5074C3.27506 81.5074 5.43273 81.5068 7.5904 81.5062C15.5454 81.5039 23.5005 81.5017 31.4554 81.5304C32.371 81.5337 32.7557 81.268 33.0506 80.3993C37.6985 66.7061 42.3741 53.0222 47.0637 39.2971ZM175.887 6.07776e-09C185.556 6.07776e-09 194.739 1.39008 201.556 5.28224C208.505 9.2493 212.883 15.7613 212.883 25.5475C212.883 33.632 208.554 40.6373 201.133 44.1919C200.715 44.3918 200.734 45.0276 201.163 45.2029C203.364 46.1038 205.232 47.3258 206.718 48.9243C209.367 51.7726 210.611 55.6086 210.611 60.359V69.5143C210.611 72.7545 210.635 75.6912 212.006 78.5081L212.77 80.0778C212.931 80.4099 212.689 80.7966 212.32 80.7966H182.391C182.206 80.7966 182.035 80.6941 181.949 80.5302L181.638 79.9429C180.485 77.7602 180.02 74.3256 180.02 69.7272V63.6592C180.02 61.1449 179.464 59.4428 178.246 58.3206C176.994 57.1663 174.708 56.3115 170.506 56.3115H152.287C152.011 56.3115 151.787 56.5353 151.787 56.8115V80.2966C151.787 80.5727 151.563 80.7966 151.287 80.7966H121.695C121.419 80.7966 121.195 80.5727 121.195 80.2966V0.500001C121.195 0.223859 121.419 6.07776e-09 121.695 6.07776e-09H175.887ZM170.267 35.8761C175.337 35.8761 178.203 34.9563 179.793 33.6768C181.296 32.4669 181.933 30.7048 181.933 28.209C181.933 26.776 181.642 25.709 181.178 24.8977C180.717 24.0919 180.032 23.443 179.086 22.925C177.128 21.8518 174.156 21.3935 170.267 21.3935H152.287C152.011 21.3935 151.787 21.6174 151.787 21.8935V35.3761C151.787 35.6522 152.011 35.8761 152.287 35.8761H170.267ZM286.219 0.139372C286.313 0.0499432 286.437 6.07776e-09 286.566 6.07776e-09H325.197C325.658 6.07776e-09 325.873 0.571189 325.527 0.875596L288.439 33.465C288.233 33.6462 288.211 33.9596 288.391 34.1674L327.933 79.9698C328.212 80.2938 327.982 80.7966 327.554 80.7966H290.08C289.932 80.7966 289.792 80.7308 289.697 80.6171L266.522 52.8676C266.338 52.6475 266.007 52.6268 265.798 52.8223L255.302 62.6043C255.2 62.6989 255.143 62.8314 255.143 62.9701V80.2966C255.143 80.5727 254.919 80.7966 254.643 80.7966H225.051C224.775 80.7966 224.551 80.5727 224.551 80.2966V0.500001C224.551 0.223859 224.775 6.07776e-09 225.051 6.07776e-09H254.643C254.919 6.07776e-09 255.143 0.223858 255.143 0.5V28.8105C255.143 29.2511 255.671 29.4763 255.989 29.1712L286.219 0.139372Z" fill="white"/>
</svg>
