<svg width="327" height="119" viewBox="0 0 327 119" fill="none" xmlns="http://www.w3.org/2000/svg">
<mask id="path-1-outside-1_659_2" maskUnits="userSpaceOnUse" x="0" y="0" width="327" height="119" fill="black">
<rect fill="white" width="327" height="119"/>
<path fill-rule="evenodd" clip-rule="evenodd" d="M176.859 11C185.702 11 194.1 12.2713 200.335 15.8309C206.69 19.4591 210.694 25.4146 210.694 34.3648C210.694 41.7211 206.775 48.1004 200.05 51.3666C199.634 51.5688 199.654 52.2066 200.081 52.3845C202.048 53.2042 203.72 54.308 205.056 55.7443C207.478 58.3493 208.617 61.8575 208.617 66.202V74.5751C208.617 77.5385 208.638 80.2243 209.892 82.8005L210.561 84.1747C210.722 84.5068 210.48 84.8935 210.111 84.8935H182.833C182.648 84.8935 182.478 84.791 182.391 84.6271L182.119 84.1128C181.064 82.1165 180.639 78.9753 180.639 74.7699V69.2202C180.639 66.9208 180.13 65.3641 179.017 64.3378C177.872 63.2821 175.781 62.5003 171.938 62.5003H155.318C155.042 62.5003 154.818 62.7242 154.818 63.0003V84.3935C154.818 84.6696 154.594 84.8935 154.318 84.8935H127.34C127.064 84.8935 126.84 84.6696 126.84 84.3935V11.5C126.84 11.2239 127.064 11 127.34 11H176.859ZM171.72 43.8109C176.356 43.8109 178.977 42.9697 180.431 41.7995C181.806 40.693 182.388 39.0815 182.388 36.7988C182.388 35.4883 182.122 34.5125 181.698 33.7705C181.277 33.0335 180.65 32.4401 179.785 31.9663C177.994 30.9848 175.276 30.5657 171.72 30.5657H155.318C155.042 30.5657 154.818 30.7895 154.818 31.0657V43.3109C154.818 43.587 155.042 43.8109 155.318 43.8109H171.72ZM277.752 11.1394C277.845 11.0499 277.969 11 278.099 11H313.298C313.759 11 313.975 11.5712 313.628 11.8756L279.826 41.5779C279.62 41.759 279.599 42.0725 279.778 42.2802L315.853 84.0667C316.133 84.3907 315.902 84.8935 315.474 84.8935H281.316C281.167 84.8935 281.027 84.8277 280.932 84.714L259.779 59.3853C259.595 59.1652 259.264 59.1445 259.055 59.34L249.502 68.2429C249.401 68.3374 249.343 68.4699 249.343 68.6086V84.3935C249.343 84.6696 249.119 84.8935 248.843 84.8935H221.865C221.589 84.8935 221.365 84.6696 221.365 84.3935V11.5C221.365 11.2239 221.589 11 221.865 11H248.843C249.119 11 249.343 11.2239 249.343 11.5V37.2488C249.343 37.6893 249.872 37.9146 250.189 37.6094L277.752 11.1394ZM59.0421 46.9411C59.6971 45.024 60.3525 43.106 61.0081 41.187C61.769 38.969 62.5098 36.8038 63.2498 34.6405L63.3345 34.393C63.5865 33.6565 63.8382 32.9199 64.0899 32.1833C65.0891 29.259 66.0884 26.3347 67.1045 23.4162C67.1135 23.3903 67.1227 23.3629 67.1322 23.3345C67.2275 23.0505 67.3578 22.6622 67.6855 22.6622C68.005 22.6622 68.1361 23.0153 68.2374 23.2881C68.2505 23.3233 68.263 23.3571 68.2754 23.3887C68.5734 24.1469 68.8413 24.9169 69.1092 25.6868C69.2059 25.9647 69.3026 26.2427 69.4007 26.52C70.1565 28.6568 70.9124 30.7935 71.6683 32.9303C74.2764 40.3027 76.8845 47.6752 79.4908 55.0483C80.0848 56.7287 79.8528 57.0418 78.0413 57.0419C76.9064 57.0419 75.7715 57.0419 74.6365 57.0419C69.6057 57.0419 64.5748 57.0418 59.544 57.0453C59.3504 57.0454 59.1567 57.0663 58.9432 57.0893C58.8371 57.1007 58.7262 57.1127 58.6079 57.1229L75.8342 105.863L76.0157 105.834V84.8678H119.85C119.814 84.7506 119.783 84.6475 119.754 84.5538C119.701 84.3777 119.657 84.2347 119.608 84.0938C118.273 80.267 116.938 76.4402 115.602 72.6134C108.533 52.3535 101.464 32.0936 94.4077 11.8291C94.181 11.1779 93.8682 10.9991 93.1904 11C78.7174 11.0183 64.2444 11.0178 49.7714 11.0173C47.2238 11.0172 44.6761 11.0171 42.1285 11.0171L41.1448 11.0171L16 85.5436L17.0219 85.5436C18.9944 85.5436 20.967 85.543 22.9395 85.5425C30.2156 85.5404 37.4918 85.5383 44.7678 85.5646C45.6052 85.5676 45.9571 85.3246 46.2267 84.5301C50.4773 72.0073 54.7533 59.493 59.0421 46.9411Z"/>
</mask>
<path fill-rule="evenodd" clip-rule="evenodd" d="M176.859 11C185.702 11 194.1 12.2713 200.335 15.8309C206.69 19.4591 210.694 25.4146 210.694 34.3648C210.694 41.7211 206.775 48.1004 200.05 51.3666C199.634 51.5688 199.654 52.2066 200.081 52.3845C202.048 53.2042 203.72 54.308 205.056 55.7443C207.478 58.3493 208.617 61.8575 208.617 66.202V74.5751C208.617 77.5385 208.638 80.2243 209.892 82.8005L210.561 84.1747C210.722 84.5068 210.48 84.8935 210.111 84.8935H182.833C182.648 84.8935 182.478 84.791 182.391 84.6271L182.119 84.1128C181.064 82.1165 180.639 78.9753 180.639 74.7699V69.2202C180.639 66.9208 180.13 65.3641 179.017 64.3378C177.872 63.2821 175.781 62.5003 171.938 62.5003H155.318C155.042 62.5003 154.818 62.7242 154.818 63.0003V84.3935C154.818 84.6696 154.594 84.8935 154.318 84.8935H127.34C127.064 84.8935 126.84 84.6696 126.84 84.3935V11.5C126.84 11.2239 127.064 11 127.34 11H176.859ZM171.72 43.8109C176.356 43.8109 178.977 42.9697 180.431 41.7995C181.806 40.693 182.388 39.0815 182.388 36.7988C182.388 35.4883 182.122 34.5125 181.698 33.7705C181.277 33.0335 180.65 32.4401 179.785 31.9663C177.994 30.9848 175.276 30.5657 171.72 30.5657H155.318C155.042 30.5657 154.818 30.7895 154.818 31.0657V43.3109C154.818 43.587 155.042 43.8109 155.318 43.8109H171.72ZM277.752 11.1394C277.845 11.0499 277.969 11 278.099 11H313.298C313.759 11 313.975 11.5712 313.628 11.8756L279.826 41.5779C279.62 41.759 279.599 42.0725 279.778 42.2802L315.853 84.0667C316.133 84.3907 315.902 84.8935 315.474 84.8935H281.316C281.167 84.8935 281.027 84.8277 280.932 84.714L259.779 59.3853C259.595 59.1652 259.264 59.1445 259.055 59.34L249.502 68.2429C249.401 68.3374 249.343 68.4699 249.343 68.6086V84.3935C249.343 84.6696 249.119 84.8935 248.843 84.8935H221.865C221.589 84.8935 221.365 84.6696 221.365 84.3935V11.5C221.365 11.2239 221.589 11 221.865 11H248.843C249.119 11 249.343 11.2239 249.343 11.5V37.2488C249.343 37.6893 249.872 37.9146 250.189 37.6094L277.752 11.1394ZM59.0421 46.9411C59.6971 45.024 60.3525 43.106 61.0081 41.187C61.769 38.969 62.5098 36.8038 63.2498 34.6405L63.3345 34.393C63.5865 33.6565 63.8382 32.9199 64.0899 32.1833C65.0891 29.259 66.0884 26.3347 67.1045 23.4162C67.1135 23.3903 67.1227 23.3629 67.1322 23.3345C67.2275 23.0505 67.3578 22.6622 67.6855 22.6622C68.005 22.6622 68.1361 23.0153 68.2374 23.2881C68.2505 23.3233 68.263 23.3571 68.2754 23.3887C68.5734 24.1469 68.8413 24.9169 69.1092 25.6868C69.2059 25.9647 69.3026 26.2427 69.4007 26.52C70.1565 28.6568 70.9124 30.7935 71.6683 32.9303C74.2764 40.3027 76.8845 47.6752 79.4908 55.0483C80.0848 56.7287 79.8528 57.0418 78.0413 57.0419C76.9064 57.0419 75.7715 57.0419 74.6365 57.0419C69.6057 57.0419 64.5748 57.0418 59.544 57.0453C59.3504 57.0454 59.1567 57.0663 58.9432 57.0893C58.8371 57.1007 58.7262 57.1127 58.6079 57.1229L75.8342 105.863L76.0157 105.834V84.8678H119.85C119.814 84.7506 119.783 84.6475 119.754 84.5538C119.701 84.3777 119.657 84.2347 119.608 84.0938C118.273 80.267 116.938 76.4402 115.602 72.6134C108.533 52.3535 101.464 32.0936 94.4077 11.8291C94.181 11.1779 93.8682 10.9991 93.1904 11C78.7174 11.0183 64.2444 11.0178 49.7714 11.0173C47.2238 11.0172 44.6761 11.0171 42.1285 11.0171L41.1448 11.0171L16 85.5436L17.0219 85.5436C18.9944 85.5436 20.967 85.543 22.9395 85.5425C30.2156 85.5404 37.4918 85.5383 44.7678 85.5646C45.6052 85.5676 45.9571 85.3246 46.2267 84.5301C50.4773 72.0073 54.7533 59.493 59.0421 46.9411Z" fill="#EB5E41"/>
<path d="M200.335 15.8309L205.789 6.27819L205.789 6.27819L200.335 15.8309ZM200.05 51.3666L204.856 61.2613L204.856 61.2612L200.05 51.3666ZM200.081 52.3845L204.312 42.2308L204.312 42.2307L200.081 52.3845ZM205.056 55.7443L213.111 48.2536L213.111 48.2536L205.056 55.7443ZM209.892 82.8005L219.783 77.9869L219.783 77.9868L209.892 82.8005ZM210.561 84.1747L200.67 88.9882L200.67 88.9884L210.561 84.1747ZM182.391 84.6271L192.116 79.4875L192.116 79.4872L182.391 84.6271ZM182.119 84.1128L191.844 78.9728L191.844 78.9728L182.119 84.1128ZM179.017 64.3378L186.473 56.2503L186.473 56.2503L179.017 64.3378ZM180.431 41.7995L173.535 33.2294L173.535 33.2295L180.431 41.7995ZM181.698 33.7705L191.247 28.3106L191.247 28.3105L181.698 33.7705ZM179.785 31.9663L185.071 22.3195L185.071 22.3195L179.785 31.9663ZM277.752 11.1394L285.372 19.0732L285.372 19.0728L277.752 11.1394ZM313.628 11.8756L320.889 20.1387L320.889 20.1385L313.628 11.8756ZM279.826 41.5779L272.565 33.3148L272.565 33.3149L279.826 41.5779ZM279.778 42.2802L271.451 49.4681L271.452 49.4685L279.778 42.2802ZM315.853 84.0667L307.527 91.255L307.527 91.2555L315.853 84.0667ZM280.932 84.714L272.489 91.7649L272.489 91.765L280.932 84.714ZM259.779 59.3853L251.336 66.4362L251.336 66.4363L259.779 59.3853ZM259.055 59.34L266.554 67.387L266.554 67.3869L259.055 59.34ZM249.502 68.2429L242.002 60.1959L242.002 60.196L249.502 68.2429ZM250.189 37.6094L242.57 29.6755L242.57 29.6756L250.189 37.6094ZM61.0081 41.187L50.6033 37.6175L50.601 37.6242L50.5987 37.6309L61.0081 41.187ZM59.0421 46.9411L48.6329 43.3844L48.6329 43.3844L59.0421 46.9411ZM63.2498 34.6405L73.6576 38.2011L73.6576 38.2011L63.2498 34.6405ZM63.3345 34.393L52.9267 30.8323L52.9267 30.8324L63.3345 34.393ZM64.0899 32.1833L53.6808 28.6265L53.6808 28.6265L64.0899 32.1833ZM67.1045 23.4162L77.4929 27.033L77.4929 27.0328L67.1045 23.4162ZM67.1322 23.3345L56.7034 19.8359L56.7034 19.8361L67.1322 23.3345ZM68.2374 23.2881L78.5494 19.4588L78.5492 19.4584L68.2374 23.2881ZM68.2754 23.3887L78.5133 19.3653L78.513 19.3648L68.2754 23.3887ZM69.1092 25.6868L58.72 29.3015L58.7201 29.3015L69.1092 25.6868ZM69.4007 26.52L59.0303 30.1882L59.0304 30.1884L69.4007 26.52ZM71.6683 32.9303L61.2981 36.5988L61.2981 36.5988L71.6683 32.9303ZM79.4908 55.0483L69.1196 58.7143L69.1197 58.7144L79.4908 55.0483ZM78.0413 57.0419L78.0416 68.0419L78.0417 68.0419L78.0413 57.0419ZM74.6365 57.0419L74.6364 68.0419L74.6364 68.0419L74.6365 57.0419ZM59.544 57.0453L59.5516 68.0453L59.5516 68.0453L59.544 57.0453ZM58.9432 57.0893L60.1216 68.026L60.1217 68.026L58.9432 57.0893ZM58.6079 57.1229L57.6619 46.1636L43.4997 47.386L48.2366 60.7884L58.6079 57.1229ZM75.8342 105.863L65.4629 109.529L68.5251 118.193L77.596 116.721L75.8342 105.863ZM76.0157 105.834L77.7775 116.692L87.0157 115.193V105.834H76.0157ZM76.0157 84.8678V73.8678H65.0157V84.8678H76.0157ZM119.85 84.8678V95.8678H134.797L130.353 81.5967L119.85 84.8678ZM119.754 84.5538L109.227 87.7448L109.227 87.7448L119.754 84.5538ZM119.608 84.0938L109.222 87.7176L109.222 87.7177L119.608 84.0938ZM115.602 72.6134L125.988 68.9893L125.988 68.9893L115.602 72.6134ZM94.4077 11.8291L104.796 8.21201L104.796 8.21199L94.4077 11.8291ZM93.1904 11L93.2043 22L93.2043 22L93.1904 11ZM49.7714 11.0173L49.7711 22.0173L49.7714 11.0173ZM42.1285 11.0171L42.1284 22.0171L42.1285 22.0171L42.1285 11.0171ZM41.1448 11.0171L41.1448 0.0171074L33.2469 0.0170694L30.722 7.50054L41.1448 11.0171ZM16 85.5436L5.57725 82.027L0.67949 96.5435L15.9999 96.5436L16 85.5436ZM17.0219 85.5436L17.0218 96.5436H17.0219V85.5436ZM22.9395 85.5425L22.9363 74.5425L22.9363 74.5425L22.9395 85.5425ZM44.7678 85.5646L44.7281 96.5645L44.7283 96.5645L44.7678 85.5646ZM46.2267 84.5301L56.6431 88.0657L56.6431 88.0657L46.2267 84.5301ZM205.789 6.27819C197.091 1.31212 186.409 0 176.859 0V22C184.995 22 191.11 23.2305 194.881 25.3837L205.789 6.27819ZM221.694 34.3648C221.694 21.3908 215.508 11.8268 205.789 6.27819L194.881 25.3837C197.872 27.0913 199.694 29.4384 199.694 34.3648H221.694ZM204.856 61.2612C215.405 56.1376 221.694 45.8937 221.694 34.3648H199.694C199.694 37.5485 198.145 40.0632 195.245 41.472L204.856 61.2612ZM204.312 42.2307C208.727 44.0707 210.643 48.1818 210.744 51.5523C210.846 54.9262 209.178 59.1624 204.856 61.2613L195.245 41.4719C186.254 45.8386 186.726 58.7366 195.85 62.5384L204.312 42.2307ZM213.111 48.2536C210.54 45.4879 207.486 43.5532 204.312 42.2308L195.85 62.5383C196.61 62.8552 196.901 63.1282 197 63.2349L213.111 48.2536ZM219.617 66.202C219.617 59.9155 217.928 53.4337 213.111 48.2536L197 63.2349C197.028 63.2648 197.617 63.7994 197.617 66.202H219.617ZM219.617 74.5751V66.202H197.617V74.5751H219.617ZM219.783 77.9868C219.827 78.0781 219.765 78.0213 219.707 77.535C219.634 76.9189 219.617 76.1463 219.617 74.5751H197.617C197.617 77.1993 197.473 82.4203 200.001 87.6141L219.783 77.9868ZM220.451 79.3611L219.783 77.9869L200.001 87.6141L200.67 88.9882L220.451 79.3611ZM210.111 95.8935C218.606 95.8935 224.169 86.9997 220.451 79.3609L200.67 88.9884C197.275 82.0138 202.355 73.8935 210.111 73.8935V95.8935ZM182.833 95.8935H210.111V73.8935H182.833V95.8935ZM172.665 89.7667C174.657 93.536 178.571 95.8935 182.833 95.8935V73.8935C186.725 73.8935 190.298 76.0459 192.116 79.4875L172.665 89.7667ZM172.394 89.2527L172.666 89.767L192.116 79.4872L191.844 78.9728L172.394 89.2527ZM169.639 74.7699C169.639 79.1288 169.975 84.6762 172.394 89.2527L191.844 78.9728C192.1 79.4556 191.992 79.4898 191.857 78.6098C191.732 77.7877 191.639 76.5481 191.639 74.7699H169.639ZM169.639 69.2202V74.7699H191.639V69.2202H169.639ZM171.561 72.4253C170.6 71.5392 170.057 70.5273 169.802 69.7568C169.586 69.1044 169.639 68.819 169.639 69.2202H191.639C191.639 65.5026 190.827 60.2642 186.473 56.2503L171.561 72.4253ZM171.938 73.5003C172.532 73.5003 172.943 73.5308 173.204 73.5618C173.465 73.593 173.538 73.6203 173.468 73.6001C173.309 73.5548 172.493 73.2848 171.561 72.4254L186.473 56.2503C182.339 52.4395 176.885 51.5003 171.938 51.5003V73.5003ZM155.318 73.5003H171.938V51.5003H155.318V73.5003ZM165.818 63.0003C165.818 68.7991 161.117 73.5003 155.318 73.5003V51.5003C148.967 51.5003 143.818 56.6492 143.818 63.0003H165.818ZM165.818 84.3935V63.0003H143.818V84.3935H165.818ZM154.318 95.8935C160.669 95.8935 165.818 90.7449 165.818 84.3935H143.818C143.818 78.5944 148.519 73.8935 154.318 73.8935V95.8935ZM127.34 95.8935H154.318V73.8935H127.34V95.8935ZM115.84 84.3935C115.84 90.7449 120.989 95.8935 127.34 95.8935V73.8935C133.139 73.8935 137.84 78.5944 137.84 84.3935H115.84ZM115.84 11.5V84.3935H137.84V11.5H115.84ZM127.34 0C120.989 0 115.84 5.14878 115.84 11.5H137.84C137.84 17.2989 133.139 22 127.34 22V0ZM176.859 0H127.34V22H176.859V0ZM173.535 33.2295C174.332 32.588 174.866 32.5056 174.583 32.5768C174.286 32.6517 173.42 32.8109 171.72 32.8109V54.8109C177.245 54.8109 182.949 53.8923 187.327 50.3696L173.535 33.2295ZM171.388 36.7988C171.388 37.0609 171.347 36.6027 171.657 35.7966C172.018 34.8548 172.673 33.9231 173.535 33.2294L187.327 50.3696C192.224 46.4289 193.388 41.0051 193.388 36.7988H171.388ZM172.149 39.2304C171.441 37.9918 171.388 37.0006 171.388 36.7988H193.388C193.388 33.976 192.804 31.0331 191.247 28.3106L172.149 39.2304ZM174.499 41.6131C173.858 41.2616 172.88 40.5087 172.149 39.2304L191.247 28.3105C189.674 25.5583 187.442 23.6186 185.071 22.3195L174.499 41.6131ZM171.72 41.5657C173.106 41.5657 174.026 41.6504 174.584 41.7446C175.178 41.8449 175.023 41.9002 174.499 41.6131L185.071 22.3195C180.733 19.9427 175.656 19.5657 171.72 19.5657V41.5657ZM155.318 41.5657H171.72V19.5657H155.318V41.5657ZM165.818 31.0657C165.818 36.8645 161.117 41.5657 155.318 41.5657V19.5657C148.967 19.5657 143.818 24.7146 143.818 31.0657H165.818ZM165.818 43.3109V31.0657H143.818V43.3109H165.818ZM155.318 32.8109C161.117 32.8109 165.818 37.512 165.818 43.3109H143.818C143.818 49.662 148.967 54.8109 155.318 54.8109V32.8109ZM171.72 32.8109H155.318V54.8109H171.72V32.8109ZM278.099 0C275.129 0 272.274 1.1486 270.132 3.20598L285.372 19.0728C283.416 20.9513 280.81 22 278.099 22V0ZM313.298 0H278.099V22H313.298V0ZM320.889 20.1385C328.856 13.1378 323.906 0 313.298 0V22C303.613 22 299.093 10.0046 306.367 3.61268L320.889 20.1385ZM287.087 49.841L320.889 20.1387L306.367 3.61249L272.565 33.3148L287.087 49.841ZM288.105 35.0923C291.87 39.4543 291.417 46.0365 287.087 49.8409L272.565 33.3149C267.824 37.4815 267.327 44.6906 271.451 49.4681L288.105 35.0923ZM324.179 76.8784L288.104 35.0919L271.452 49.4685L307.527 91.255L324.179 76.8784ZM315.474 95.8935C325.318 95.8935 330.613 84.3299 324.179 76.878L307.527 91.2555C301.652 84.4515 306.487 73.8935 315.474 73.8935V95.8935ZM281.316 95.8935H315.474V73.8935H281.316V95.8935ZM272.489 91.765C274.674 94.381 277.907 95.8935 281.316 95.8935V73.8935C284.428 73.8935 287.38 75.2744 289.375 77.6629L272.489 91.765ZM251.336 66.4363L272.489 91.7649L289.375 77.663L268.222 52.3344L251.336 66.4363ZM266.554 67.3869C262.148 71.4937 255.197 71.0596 251.336 66.4362L268.222 52.3344C263.994 47.2707 256.381 46.7953 251.555 51.2932L266.554 67.3869ZM257.002 76.2898L266.554 67.387L251.555 51.2931L242.002 60.1959L257.002 76.2898ZM260.343 68.6086C260.343 71.5211 259.133 74.3033 257.002 76.2897L242.002 60.196C239.668 62.3716 238.343 65.4187 238.343 68.6086H260.343ZM260.343 84.3935V68.6086H238.343V84.3935H260.343ZM248.843 95.8935C255.194 95.8935 260.343 90.7449 260.343 84.3935H238.343C238.343 78.5944 243.044 73.8935 248.843 73.8935V95.8935ZM221.865 95.8935H248.843V73.8935H221.865V95.8935ZM210.365 84.3935C210.365 90.7449 215.514 95.8935 221.865 95.8935V73.8935C227.664 73.8935 232.365 78.5944 232.365 84.3935H210.365ZM210.365 11.5V84.3935H232.365V11.5H210.365ZM221.865 0C215.514 0 210.365 5.14867 210.365 11.5H232.365C232.365 17.299 227.664 22 221.865 22V0ZM248.843 0H221.865V22H248.843V0ZM260.343 11.5C260.343 5.14845 255.194 0 248.843 0V22C243.044 22 238.343 17.2993 238.343 11.5H260.343ZM260.343 37.2488V11.5H238.343V37.2488H260.343ZM242.57 29.6756C249.244 23.2666 260.343 27.9963 260.343 37.2488H238.343C238.343 47.3824 250.5 52.5625 257.809 45.5432L242.57 29.6756ZM270.133 3.20551L242.57 29.6755L257.809 45.5432L285.372 19.0732L270.133 3.20551ZM50.5987 37.6309C49.9432 39.5496 49.288 41.4673 48.6329 43.3844L69.4512 50.4977C70.1062 48.5807 70.7617 46.6625 71.4174 44.7432L50.5987 37.6309ZM52.842 31.0799C52.1017 33.2438 51.3625 35.4046 50.6033 37.6175L71.4128 44.7566C72.1755 42.5333 72.9178 40.3637 73.6576 38.2011L52.842 31.0799ZM52.9267 30.8324L52.842 31.0799L73.6576 38.2011L73.7423 37.9536L52.9267 30.8324ZM53.6808 28.6265C53.429 29.3634 53.1779 30.098 52.9267 30.8323L73.7423 37.9537C73.995 37.2149 74.2474 36.4764 74.4989 35.7401L53.6808 28.6265ZM56.7161 19.7993C55.6878 22.7528 54.6783 25.7071 53.6808 28.6265L74.4989 35.7402C75.4999 32.8108 76.4889 29.9165 77.4929 27.033L56.7161 19.7993ZM56.7034 19.8361C56.7008 19.8439 56.6996 19.8474 56.6986 19.8504C56.6977 19.853 56.6979 19.8524 56.6987 19.8499C56.7001 19.8457 56.7065 19.8268 56.716 19.7995L77.4929 27.0328C77.5263 26.9371 77.5559 26.8482 77.5611 26.8329L56.7034 19.8361ZM67.6855 11.6622C62.268 11.6622 59.1995 15.1892 58.0758 16.9325C57.5146 17.8033 57.1796 18.577 57.0086 19.0018C56.8374 19.427 56.7127 19.8083 56.7034 19.8359L77.561 26.8331C77.7056 26.4021 77.3635 27.6163 76.5676 28.8512C76.099 29.5782 75.1992 30.7721 73.6779 31.811C72.0174 32.9451 69.9441 33.6622 67.6855 33.6622V11.6622ZM78.5492 19.4584C78.5411 19.4364 78.4033 19.0564 78.2173 18.6347C78.0297 18.2096 77.6648 17.439 77.0647 16.5789C75.7944 14.7581 72.7348 11.6622 67.6855 11.6622V33.6622C65.5964 33.6622 63.6292 33.0457 61.9923 32.0055C60.474 31.0406 59.5368 29.905 59.0219 29.1668C58.1577 27.9282 57.7651 26.6855 57.9256 27.1179L78.5492 19.4584ZM78.513 19.3648C78.5328 19.415 78.5466 19.4517 78.5513 19.464C78.5539 19.4709 78.5553 19.4747 78.5548 19.4734C78.5541 19.4714 78.5529 19.4684 78.5494 19.4588L57.9255 27.1175C57.9308 27.1317 57.9804 27.2664 58.0378 27.4125L78.513 19.3648ZM79.4984 22.0722C79.2425 21.3367 78.9042 20.3602 78.5133 19.3653L58.0376 27.412C58.2426 27.9335 58.4402 28.497 58.72 29.3015L79.4984 22.0722ZM79.771 22.8518C79.684 22.6057 79.5966 22.3546 79.4983 22.0721L58.7201 29.3015C58.8152 29.5749 58.9212 29.8796 59.0303 30.1882L79.771 22.8518ZM82.0386 29.2617C81.2827 27.1249 80.5268 24.9883 79.771 22.8517L59.0304 30.1884C59.7863 32.3252 60.5422 34.4621 61.2981 36.5988L82.0386 29.2617ZM89.8619 51.3823C87.2551 44.0077 84.6466 36.634 82.0386 29.2617L61.2981 36.5988C63.9063 43.9715 66.5139 51.3427 69.1196 58.7143L89.8619 51.3823ZM78.0417 68.0419C78.617 68.0419 79.9208 68.0348 81.3573 67.7358C82.7253 67.451 86.1006 66.5249 88.5573 63.1546C91.0539 59.7294 90.8696 56.172 90.6833 54.6933C90.4938 53.1898 90.0534 51.9242 89.8619 51.3822L69.1197 58.7144C69.2251 59.0126 68.9785 58.4162 68.8559 57.4441C68.7365 56.4967 68.4924 53.3327 70.7789 50.1958C73.0254 47.1138 76.0402 46.371 76.8738 46.1975C77.7759 46.0097 78.3714 46.0419 78.041 46.0419L78.0417 68.0419ZM74.6364 68.0419C75.7713 68.0419 76.9065 68.0419 78.0416 68.0419L78.041 46.0419C76.9063 46.0419 75.7716 46.0419 74.6366 46.0419L74.6364 68.0419ZM59.5516 68.0453C64.578 68.0418 69.6049 68.0419 74.6364 68.0419L74.6366 46.0419C69.6064 46.0419 64.5717 46.0418 59.5364 46.0453L59.5516 68.0453ZM60.1217 68.026C60.1814 68.0196 60.1989 68.0177 60.2099 68.0166C60.2171 68.0159 60.1914 68.0186 60.1463 68.0222C60.0581 68.0294 59.8423 68.0451 59.5516 68.0453L59.5364 46.0453C58.6521 46.0459 57.8631 46.142 57.7647 46.1526L60.1217 68.026ZM59.5538 68.0822C59.8055 68.0604 60.0281 68.0361 60.1216 68.026L57.7647 46.1526C57.737 46.1556 57.718 46.1576 57.7 46.1596C57.683 46.1614 57.6714 46.1626 57.6632 46.1634C57.6467 46.1651 57.6488 46.1648 57.6619 46.1636L59.5538 68.0822ZM86.2055 102.198L68.9792 53.4574L48.2366 60.7884L65.4629 109.529L86.2055 102.198ZM74.2539 94.9758L74.0724 95.0052L77.596 116.721L77.7775 116.692L74.2539 94.9758ZM65.0157 84.8678V105.834H87.0157V84.8678H65.0157ZM119.85 73.8678H76.0157V95.8678H119.85V73.8678ZM109.227 87.7448C109.255 87.8364 109.297 87.9767 109.348 88.1388L130.353 81.5967C130.33 81.5245 130.31 81.4585 130.281 81.3627L109.227 87.7448ZM109.222 87.7177C109.197 87.6452 109.183 87.5997 109.184 87.6045C109.185 87.6054 109.186 87.6087 109.188 87.6152C109.19 87.6218 109.192 87.6306 109.196 87.6426C109.2 87.6547 109.204 87.6688 109.209 87.6861C109.215 87.7037 109.22 87.7223 109.227 87.7448L130.281 81.3627C130.242 81.235 130.132 80.8654 129.994 80.4699L109.222 87.7177ZM105.216 76.2374C106.552 80.0642 107.887 83.8909 109.222 87.7176L129.994 80.47C128.659 76.643 127.324 72.8161 125.988 68.9893L105.216 76.2374ZM84.0194 15.4461C91.0766 35.7148 98.1473 55.9781 105.217 76.2374L125.988 68.9893C118.919 48.7289 111.85 28.4725 104.796 8.21201L84.0194 15.4461ZM93.2043 22C92.8601 22.0004 90.453 22.0264 87.9175 20.3563C85.215 18.5763 84.2686 16.1617 84.0194 15.4462L104.796 8.21199C104.32 6.84521 103.104 4.01565 100.019 1.98369C97.1009 0.061681 94.1986 -0.00127633 93.1765 1.48778e-05L93.2043 22ZM49.7711 22.0173C64.2429 22.0178 78.723 22.0183 93.2043 22L93.1765 1.48643e-05C78.7119 0.0182749 64.246 0.0177756 49.7718 0.0172744L49.7711 22.0173ZM42.1285 22.0171C44.6759 22.0171 47.2234 22.0172 49.7711 22.0173L49.7718 0.0172744C47.2242 0.0171862 44.6763 0.017098 42.1284 0.0171121L42.1285 22.0171ZM41.1447 22.0171L42.1284 22.0171L42.1285 0.0171121L41.1448 0.0171074L41.1447 22.0171ZM26.4228 89.0602L51.5675 14.5337L30.722 7.50054L5.57725 82.027L26.4228 89.0602ZM17.022 74.5436L16.0001 74.5436L15.9999 96.5436L17.0218 96.5436L17.022 74.5436ZM22.9363 74.5425C20.9635 74.543 18.9926 74.5436 17.0219 74.5436V96.5436C18.9963 96.5436 20.9704 96.543 22.9426 96.5425L22.9363 74.5425ZM44.8076 74.5647C37.5065 74.5383 30.2089 74.5404 22.9363 74.5425L22.9426 96.5425C30.2224 96.5404 37.4771 96.5383 44.7281 96.5645L44.8076 74.5647ZM35.8104 80.9945C35.957 80.5627 36.7789 78.1855 39.369 76.3581C41.9319 74.5501 44.4167 74.5633 44.8074 74.5647L44.7283 96.5645C45.9563 96.569 49.0358 96.4622 52.0513 94.3347C55.0942 92.1881 56.2268 89.2921 56.6431 88.0657L35.8104 80.9945ZM48.6329 43.3844C44.3447 55.9346 40.0652 68.4594 35.8104 80.9945L56.6431 88.0657C60.8895 75.5552 65.1618 63.0514 69.4512 50.4977L48.6329 43.3844Z" fill="white" mask="url(#path-1-outside-1_659_2)"/>
</svg>
