<svg width="576" height="540" viewBox="0 0 576 540" fill="none" xmlns="http://www.w3.org/2000/svg">
  <path
    d="M344.825 287.058C325.385 343.702 306.003 400.113 286.753 456.568C285.693 459.676 284.311 460.626 281.021 460.614C244.686 460.484 208.35 460.532 172.015 460.532C170.833 460.532 169.652 460.532 168 460.532C201.026 363.091 233.896 266.11 266.787 169.067C268.224 169.067 269.438 169.067 270.652 169.067C337.521 169.067 404.391 169.084 471.261 169C473.923 168.997 475.152 169.696 476.043 172.242C508.999 266.465 542.031 360.661 575.049 454.862C575.345 455.707 575.587 456.57 576 457.889C518.544 457.889 461.351 457.889 403.786 457.889C403.786 485.504 403.786 512.694 403.786 539.885C403.548 539.923 403.31 539.962 403.073 540C380.569 476.617 358.065 413.235 335.395 349.382C336.796 349.261 337.934 349.079 339.073 349.078C363.296 349.062 387.52 349.066 411.744 349.065C418.861 349.065 419.772 347.84 417.438 341.268C404.231 304.075 391.012 266.887 377.797 229.697C376.344 225.607 374.969 221.486 373.376 217.451C372.949 216.369 372.475 214.61 371.059 214.61C369.642 214.61 369.165 216.447 368.776 217.558C363.778 231.847 358.885 246.172 353.965 260.487C350.946 269.27 347.928 278.053 344.825 287.058Z"
    fill="#EB5E41"
    fill-opacity="0.06"
  />
  <rect opacity="0.9" x="411" width="57" height="57" fill="#EEC2B7" />
  <rect x="509" y="201" width="57" height="57" fill="#E49582" />
  <rect y="444" width="57" height="57" fill="#F6E1DB" />
</svg>
