<svg
  width="1784"
  height="356"
  viewBox="0 0 1784 356"
  fill="none"
  xmlns="http://www.w3.org/2000/svg"
>
  <circle
    opacity="0.5"
    cx="892"
    cy="178"
    r="177"
    fill="#451D14"
    stroke="#451D14"
    stroke-width="2"
  />
  <g opacity="0.5">
    <circle cx="892" cy="178" r="141" fill="#662314" />
    <circle cx="892" cy="178" r="140" stroke="white" stroke-opacity="0.03" stroke-width="2" />
  </g>
  <g opacity="0.5">
    <circle cx="892" cy="178" r="99" fill="#953D2B" />
    <circle cx="892" cy="178" r="98" stroke="white" stroke-opacity="0.07" stroke-width="2" />
  </g>
  <circle cx="892" cy="178" r="50" fill="#BD4E34" />
  <circle cx="892" cy="178" r="49" stroke="white" stroke-opacity="0.21" stroke-width="2" />
  <path
    d="M889.069 170.729C886.973 176.836 884.883 182.918 882.807 189.005C882.692 189.34 882.543 189.442 882.189 189.441C878.27 189.427 874.352 189.432 870.433 189.432C870.306 189.432 870.178 189.432 870 189.432C873.562 178.926 877.106 168.47 880.654 158.007C880.809 158.007 880.939 158.007 881.07 158.007C888.282 158.007 895.493 158.009 902.705 158C902.992 158 903.124 158.075 903.22 158.35C906.774 168.508 910.337 178.664 913.897 188.821C913.929 188.912 913.955 189.005 914 189.147C907.804 189.147 901.636 189.147 895.428 189.147C895.428 192.124 895.428 195.056 895.428 197.988C895.402 197.992 895.377 197.996 895.351 198C892.924 191.166 890.497 184.333 888.052 177.448C888.203 177.435 888.326 177.416 888.449 177.415C891.061 177.414 893.674 177.414 896.286 177.414C897.054 177.414 897.152 177.282 896.9 176.573C895.476 172.563 894.05 168.554 892.625 164.544C892.468 164.103 892.32 163.659 892.148 163.224C892.102 163.107 892.051 162.917 891.898 162.917C891.746 162.917 891.694 163.116 891.652 163.235C891.113 164.776 890.586 166.32 890.055 167.864C889.73 168.811 889.404 169.758 889.069 170.729Z"
    fill="white"
  />
  <path
    d="M1784 178L1561.34 178L1535.83 240L1535.83 81L1504.8 178L1070 178"
    stroke="#391915"
    stroke-width="2"
  />
  <path
    d="M5.42021e-06 179L222.656 179L248.174 117L248.174 276L279.196 179L714 179"
    stroke="#391915"
    stroke-width="2"
  />
</svg>
